<?xml version="1.0" encoding="UTF-8" standalone="no"?>
<svg
   xmlns:dc="http://purl.org/dc/elements/1.1/"
   xmlns:cc="http://creativecommons.org/ns#"
   xmlns:rdf="http://www.w3.org/1999/02/22-rdf-syntax-ns#"
   xmlns:svg="http://www.w3.org/2000/svg"
   xmlns="http://www.w3.org/2000/svg"
   xmlns:sodipodi="http://sodipodi.sourceforge.net/DTD/sodipodi-0.dtd"
   xmlns:inkscape="http://www.inkscape.org/namespaces/inkscape"
   width="370.0050243795298mm"
   height="334.4819121365567mm"
   viewBox="0 0 370.0050243795298 334.4819121365567"
   version="1.1"
   id="svg2"
   inkscape:version="0.91 r13725"
   sodipodi:docname="Top.svg">
  <metadata
     id="metadata12">
    <rdf:RDF>
      <cc:Work
         rdf:about="">
        <dc:format>image/svg+xml</dc:format>
        <dc:type
           rdf:resource="http://purl.org/dc/dcmitype/StillImage" />
        <dc:title></dc:title>
      </cc:Work>
    </rdf:RDF>
  </metadata>
  <defs
     id="defs10" />
  <sodipodi:namedview
     pagecolor="#ffffff"
     bordercolor="#666666"
     borderopacity="1"
     objecttolerance="10"
     gridtolerance="10"
     guidetolerance="10"
     inkscape:pageopacity="0"
     inkscape:pageshadow="2"
     inkscape:window-width="1920"
     inkscape:window-height="1017"
     id="namedview8"
     showgrid="false"
     inkscape:zoom="0.1991272"
     inkscape:cx="655.52073"
     inkscape:cy="994.3393"
     inkscape:window-x="1912"
     inkscape:window-y="-8"
     inkscape:window-maximized="1"
     inkscape:current-layer="svg2" />
  <desc
     id="desc4">Output from Flights of Ideas SVG Sketchup Plugin</desc>
  <path
     id="face0-cut"
     style="fill:none;stroke:#0000FF;stroke-width:1;stroke-miterlimit:4;stroke-dasharray:none;stroke-linejoin:round;stroke-linecap:round"
     d="M 354.35996625732787,146.09475901725295 L 287.7592759693571,30.96859498389489 L 285.78792813775004,27.88008517184312 L 283.5549005131557,24.975142356550492 L 281.07718778413596,22.275874906893904 L 278.3736468406429,19.802825878027363 L 275.46485326169875,17.574816666328417 L 272.3729447228171,15.608803767206894 L 269.1214525149241,13.9197497259361 L 265.73512245702665,12.520509263648819 L 262.23972656558726,11.421731445147543 L 258.6618669139175,10.631778633091301 L 255.02877317433737,10.156662845366355 L 251.36809538392714,10.0 L 118.36556754679897,10.114807682283185 L 114.70516567392121,10.277790078124326 L 111.0728975870395,10.759177320729265 L 107.49640703951863,11.55530576251192 L 104.00291328396914,12.66011638531512 L 100.61900391730009,14.065200913196264 L 97.37043253305211,15.759865804485088 L 94.28192272100037,17.731213636092036 L 91.37697990570776,19.96424126068652 L 88.6777124560511,22.441953989706178 L 86.20466342718458,25.14549493319933 L 83.9766542154857,28.054288512143557 L 82.01064131636412,31.146197051025098 L 15.60867756329219,146.094759017253 L 13.9197497259361,149.63866097455843 L 12.520509263648847,153.02499103245708 L 11.4217314451476,156.520386923898 L 10.631778633091301,160.09824657556584 L 10.15666284536627,163.73134031514553 L 10.0,167.3920181055558 L 10.162982395841254,171.0524199784346 L 10.644369638446108,174.68468806531615 L 11.44049808022885,178.26117861283717 L 12.545308703032049,181.75467236838625 L 13.950393230913193,185.13858173505565 L 15.645058122202045,188.387153119304 L 82.24574841017278,303.5133171526618 L 84.21709624177993,306.6018269647135 L 86.45012386637427,309.5067697800061 L 88.9278365953939,312.2060372296627 L 91.6313775388871,314.67908625852925 L 94.54017111783119,316.90709547022806 L 97.6320796567129,318.87310836934984 L 100.8835718646058,320.5621624106205 L 104.26990192250327,321.96140287290774 L 107.76529781394268,323.06018069140913 L 111.34315746561244,323.8501335034653 L 114.97625120519253,324.32524929119035 L 118.63692899560296,324.4819121365567 L 251.63945683273107,324.3671044542734 L 255.29985870560895,324.20412205843223 L 258.9321267924905,323.72273481582744 L 262.5086173400115,322.9266063740445 L 266.0021110955609,321.8217957512415 L 269.38602046222996,320.4167112233603 L 272.63459184647786,318.72204633207144 L 275.72310165852963,316.75069850046447 L 278.6280444738222,314.51767087587 L 281.3273119234788,312.03995814685044 L 283.80036095234533,309.33641720335726 L 286.02837016404425,306.42762362441323 L 287.99438306316586,303.33571508553143 L 354.39622061232296,188.09474336988995 L 356.08527465359373,184.843251161997 L 357.4845151158811,181.4569211040996 L 358.58329293438237,177.96152521266015 L 359.37324574643856,174.38366556099044 L 359.8483615341635,170.7505718214103 L 360.0050243795298,167.08989403099991 L 359.84204198368866,163.42949215812206 L 359.36065474108375,159.7972240712404 L 358.56452629930095,156.22073352371956 L 357.4597156764977,152.72723976817002 L 356.0546311486165,149.34333040150096 L 354.35996625732787,146.09475901725295 M 268.9337387875073,22.92909585981451 L 269.0848376415835,23.2903477163741 L 269.1372890665019,23.67839747554791 L 269.08751858433476,24.066800187530788 L 268.9389179711919,24.429086849367025 L 268.7016141132851,24.740568223759368 L 268.3917788763674,24.980017369790374 L 268.0305270198079,25.131116223866456 L 267.642477260634,25.1835676487849 L 267.2540745486511,25.13379716661774 L 266.89178788681494,24.985196553474935 L 266.5803065124225,24.74789269556814 L 266.34085736639156,24.438057458650377 L 266.1897585123155,24.076805602090815 L 266.137307087397,23.688755842917004 L 266.1870775695642,23.300353130934184 L 266.335678182707,22.938066469097947 L 266.57298204061385,22.62658509470552 L 266.88281727753156,22.38713594867454 L 267.2440691340911,22.236037094598515 L 267.6321188932649,22.18358566968007 L 268.0205216052478,22.233356151847232 L 268.382808267084,22.381956764990036 L 268.69428964147636,22.619260622896803 L 268.9337387875073,22.92909585981451 M 308.6456429279101,80.32322843225631 L 308.8826778379396,80.01154231911278 L 309.1923062814448,79.7718258018017 L 309.5534275916859,79.62041516482742 L 309.9414319481511,79.56762879288186 L 310.32987749515496,79.61706398997944 L 310.6922923106057,79.76535182913358 L 311.0039784237492,80.00238673916317 L 311.2436949410603,80.31201518266829 L 311.39510557803453,80.6731364929094 L 311.44789194998015,81.06114084937462 L 311.39845675288257,81.44958639637849 L 311.25016891372843,81.81200121182917 L 311.01313400369884,82.1236873249727 L 310.70350556019366,82.36340384228379 L 310.3423842499526,82.51481447925806 L 309.9543798934874,82.56760085120368 L 309.5659343464835,82.51816565410604 L 309.2035195310328,82.3698778149519 L 308.8918334178893,82.13284290492243 L 308.6521169005782,81.8232144614172 L 308.50070626360383,81.46209315117613 L 308.44791989165833,81.07408879471086 L 308.49735508875597,80.68564324770705 L 308.6456429279101,80.32322843225631 M 323.3673410032427,101.42960903762122 L 323.41669925255957,101.80452216286676 L 323.3673410032427,102.17943528811224 L 323.2226299384147,102.52879870344543 L 322.99242787799716,102.82880386946181 L 322.6924227119808,103.05900592987933 L 322.34305929664754,103.20371699470735 L 321.9681461714021,103.25307524402422 L 321.5932330461565,103.2037169947074 L 321.2438696308233,103.05900592987933 L 320.94386446480695,102.82880386946181 L 320.7136624043895,102.52879870344543 L 320.56895133956147,102.17943528811219 L 320.5195930902446,101.8045221628667 L 320.56895133956147,101.42960903762116 L 320.7136624043895,101.08024562228798 L 320.94386446480695,100.7802404562716 L 321.2438696308233,100.55003839585407 L 321.5932330461566,100.40532733102606 L 321.9681461714021,100.35596908170925 L 322.34305929664754,100.40532733102606 L 322.6924227119808,100.55003839585413 L 322.99242787799716,100.7802404562716 L 323.2226299384147,101.08024562228798 L 323.3673410032427,101.42960903762122 M 351.48429171965,165.74623842970925 L 351.79495187711746,165.9846163526239 L 352.03332980003216,166.29527651009136 L 352.1831804268853,166.65704792577054 L 352.2342916850971,167.0452764755384 L 352.18318042688543,167.43350502530626 L 352.0333298000322,167.7952764409855 L 351.7949518771176,168.10593659845296 L 351.48429171965006,168.3443145213676 L 351.12252030397093,168.49416514822087 L 350.7342917542031,168.54527640643255 L 350.3460632044352,168.49416514822093 L 349.984291788756,168.34431452136772 L 349.67363163128846,168.10593659845313 L 349.4352537083739,167.79527644098562 L 349.2854030815206,167.43350502530643 L 349.2342918233089,167.04527647553857 L 349.2854030815206,166.6570479257707 L 349.4352537083738,166.29527651009153 L 349.6736316312884,165.98461635262402 L 349.98429178875585,165.74623842970936 L 350.34606320443504,165.5963878028561 L 350.7342917542029,165.54527654464442 L 351.12252030397076,165.5963878028561 L 351.48429171965,165.74623842970925 M 321.578667069178,230.8318691388164 L 321.96685137300943,230.78042277880814 L 322.35512391521155,230.83119890184912 L 322.717024563684,230.98073719906552 L 323.0278903873026,231.21884688262583 L 323.2665363939176,231.52930117109008 L 323.4166992525595,231.89094311774966 L 323.4681456125677,232.279127421581 L 323.41736948952666,232.66739996378323 L 323.26783119231027,233.02930061225567 L 323.0297215087501,233.34016643587415 L 322.7192672202857,233.57881244248927 L 322.3576252736262,233.7289753011312 L 321.96944096979473,233.78042166113926 L 321.5811684275926,233.72964553809823 L 321.2192677791201,233.5801072408819 L 320.90840195550163,233.3419975573217 L 320.6697559488865,233.03154326885738 L 320.5195930902447,232.66990132219786 L 320.4681467302365,232.28171701836635 L 320.5189228532775,231.89344447616423 L 320.66846115049384,231.5315438276918 L 320.90657083405415,231.2206780040732 L 321.2170251225184,230.9820319974582 L 321.578667069178,230.8318691388164 M 311.28448211740624,252.32426150562054 L 311.43464497604816,252.68590345228017 L 311.48609133605623,253.07408775611157 L 311.4353152130152,253.4623602983138 L 311.2857769157988,253.82426094678624 L 311.0476672322385,254.13512677040484 L 310.7372129437742,254.37377277701984 L 310.37557099711466,254.52393563566164 L 309.9873866932831,254.57538199566983 L 309.59911415108104,254.52460587262885 L 309.2372135026085,254.3750675754124 L 308.92634767899,254.1369578918521 L 308.6877016723749,253.82650360338778 L 308.5375388137331,253.46486165672815 L 308.4860924537249,253.07667735289675 L 308.53686857676587,252.68840481069464 L 308.6864068739823,252.32650416222208 L 308.92451655754263,252.01563833860348 L 309.23497084600695,251.77699233198848 L 309.5966127926665,251.62682947334667 L 309.984797096498,251.5753831133385 L 310.3730696387002,251.62615923637946 L 310.73497028717264,251.77569753359592 L 311.04583611079124,252.01380721715623 L 311.28448211740624,252.32426150562054 M 267.22549707835316,311.97811586627785 L 266.91442584885715,311.74027462143016 L 266.67551195834903,311.4300264618982 L 266.52503699364286,311.06851428704437 L 266.4732555749119,310.6803745541581 L 266.5236965202697,310.29205834460424 L 266.6729223626478,309.93002876634114 L 266.9107636074955,309.61895753684513 L 267.2210117670276,309.3800436463371 L 267.5825239418814,309.2295686816309 L 267.97066367476765,309.1777872629 L 268.3589798843215,309.2282282082577 L 268.7210094625845,309.37745405063583 L 269.03208069208057,309.6152952954835 L 269.27099458258874,309.9255434550156 L 269.42146954729486,310.28705562986937 L 269.47325096602583,310.67519536275574 L 269.42281002066795,311.0635115723095 L 269.2735841782899,311.42554115057254 L 269.03574293344224,311.7366123800686 L 268.7254947739101,311.97552627057667 L 268.3639825990564,312.1260012352829 L 267.97584286617007,312.1777826540139 L 267.5875266566162,312.127341708656 L 267.22549707835316,311.97811586627785 M 198.55133611721126,318.1222567027217 L 198.60345256011897,318.5103516113174 L 198.55334682464596,318.8987112345687 L 198.40443353386107,319.26086950594566 L 198.16686088244046,319.572145937749 L 197.85681905397112,319.81132755555967 L 197.4954368866948,319.9621145273904 L 197.1073419780992,320.0142309702981 L 196.71898235484795,319.9641252348252 L 196.35682408347088,319.8152119440402 L 196.0455476516676,319.5776392926197 L 195.80636603385685,319.26759746415036 L 195.65557906202608,318.906215296874 L 195.60346261911835,318.5181203882783 L 195.65356835459133,318.129760765027 L 195.80248164537625,317.76760249365003 L 196.04005429679688,317.4563260618468 L 196.35009612526622,317.217144444036 L 196.7114782925425,317.0663574722052 L 197.09957320113813,317.01424102929747 L 197.48793282438945,317.0643467647705 L 197.85009109576652,317.2132600555555 L 198.16136752756975,317.450832706976 L 198.40054914538055,317.76087453544534 L 198.55133611721126,318.1222567027217 M 172.3529872464243,319.8694943946959 L 172.04232811628944,319.63111726008134 L 171.80395098167503,319.32045812994664 L 171.65410085036802,318.9586879106217 L 171.60298976117787,318.5704606447002 L 171.65410085036797,318.18223337877856 L 171.80395098167503,317.8204631594536 L 172.04232811628953,317.5098040293189 L 172.35298724642433,317.27142689470435 L 172.71475746574922,317.1215767633974 L 173.1029847316708,317.07046567420724 L 173.49121199759236,317.1215767633973 L 173.8529822169172,317.27142689470435 L 174.16364134705208,317.5098040293188 L 174.40201848166652,317.8204631594537 L 174.55186861297364,318.1822333787787 L 174.60297970216368,318.57046064470006 L 174.55186861297358,318.9586879106217 L 174.40201848166646,319.32045812994664 L 174.16364134705208,319.63111726008134 L 173.85298221691718,319.8694943946959 L 173.49121199759236,320.01934452600307 L 173.10298473167074,320.0704556151931 L 172.71475746574922,320.01934452600307 L 172.3529872464243,319.8694943946959 M 102.58165954826318,309.6596541028333 L 102.94394621009941,309.8082547159762 L 103.25542758449176,310.04555857388317 L 103.49487673052269,310.35539381080076 L 103.64597558459867,310.71664566736047 L 103.69842700951718,311.10469542653425 L 103.64865652734983,311.49309813851704 L 103.50005591420698,311.8553848003533 L 103.26275205630006,312.16686617474556 L 102.95291681938247,312.4063153207766 L 102.59166496282278,312.55741417485257 L 102.20361520364904,312.6098655997709 L 101.8152124916661,312.5600951176037 L 101.45292582983,312.41149450446085 L 101.14144445543769,312.174190646554 L 100.90199530940673,311.8643554096363 L 100.75089645533069,311.5031035530765 L 100.69844503041229,311.1150537939029 L 100.74821551257959,310.72665108192 L 100.89681612572244,310.3643644200838 L 101.13411998362926,310.05288304569154 L 101.44395522054704,309.81343389966065 L 101.80520707710664,309.66233504558465 L 102.19325683628037,309.609883620666 L 102.58165954826318,309.6596541028333 M 59.877233944121826,252.22255449358101 L 60.265683652157946,252.27195698365767 L 60.62811095205717,252.4202143072099 L 60.93981702227077,252.65722297264483 L 61.17955960923234,252.96683123108795 L 61.331000651833705,253.3279397913783 L 61.383819693289894,253.71593970189252 L 61.33441720321309,254.10438940992856 L 61.18615987966061,254.4668167098277 L 60.94915121422582,254.77852278004138 L 60.6395429557827,255.01826536700293 L 60.2784343954923,255.16970640960426 L 59.89043448497844,255.2225254510605 L 59.50198477694218,255.17312296098368 L 59.139557477042985,255.02486563743122 L 58.82785140682935,254.7878569719964 L 58.588108819867784,254.47824871355328 L 58.436667777266365,254.11714015326282 L 58.38384873581026,253.72914024274894 L 58.433251225887034,253.34069053471262 L 58.58150854943949,252.97826323481337 L 58.81851721487425,252.6665571645999 L 59.128125473317425,252.42681457763848 L 59.48923403360783,252.2753735350371 L 59.877233944121826,252.22255449358101 M 48.6138419392619,231.6877513880334 L 48.924296231282426,231.92639739002277 L 49.162405919474935,232.23726321009286 L 49.311944222084094,232.599163856337 L 49.36272035091082,232.9874363977828 L 49.31127399668708,233.37562070238062 L 49.161111143434056,233.73726265127777 L 48.92246514144523,234.04771694329844 L 48.6115993213748,234.28582663149086 L 48.24969867513059,234.4353649341001 L 47.861426133685086,234.48614106292678 L 47.47324182908693,234.43469470870315 L 47.11159988018977,234.28453185545004 L 46.801145588169334,234.04588585346113 L 46.563035899976825,233.73502003339092 L 46.41349759736761,233.37311938714646 L 46.36272146854088,232.98484684570093 L 46.414167822764625,232.59666254110294 L 46.56433067601756,232.23502059220556 L 46.8029766780065,231.9245663001853 L 47.113842498076934,231.68645661199275 L 47.47574314432117,231.53691830938357 L 47.8640156857667,231.4861421805569 L 48.25219999036477,231.53758853478047 L 48.6138419392619,231.6877513880334 M 20.157234461950566,166.69033616723954 L 20.39561238949412,167.00099632115388 L 20.5454630217381,167.36276773460105 L 20.596574285734704,167.75099628360744 L 20.54546303330804,168.13922483413683 L 20.395612411845548,168.5009962520475 L 20.15723449356014,168.81165641306745 L 19.846574339644775,169.05003434061115 L 19.484802926198654,169.1998849728554 L 19.096574377192496,169.25099623685196 L 18.70834582666322,169.19988498442467 L 18.346574408751223,169.05003436296226 L 18.03591424773174,168.81165644467706 L 17.7975363201881,168.50099629076152 L 17.647685687944232,168.13922487731634 L 17.596574423947573,167.7509963283095 L 17.64768567637421,167.36276777777942 L 17.797536297836672,167.00099635986817 L 18.03591421612211,166.69033619884902 L 18.3465743700375,166.45195827130544 L 18.708345783483594,166.3021076390611 L 19.09657433248975,166.2509963750648 L 19.484802883019142,166.30210762749232 L 19.846574300931053,166.45195824895296 L 20.157234461950566,166.69033616723954 M 48.61359406329706,101.2117085703826 L 48.92425409565385,101.45008639729684 L 49.16263192256764,101.76074642965352 L 49.31248248907224,102.12251769963814 L 49.36359372670012,102.51074609305647 L 49.31248248907224,102.89897448647469 L 49.16263192256764,103.26074575645936 L 48.92425409565385,103.57140578881649 L 48.61359406329703,103.80978361573011 L 48.25182279331236,103.95963418223477 L 47.863594399894,104.01074541986253 L 47.475366006475554,103.95963418223494 L 47.11359473649091,103.80978361572988 L 46.80293470413409,103.57140578881638 L 46.56455687722027,103.2607457564593 L 46.41470631071559,102.89897448647525 L 46.363595073087794,102.51074609305664 L 46.4147063107157,102.12251769963768 L 46.56455687722021,101.76074642965347 L 46.80293470413406,101.45008639729684 L 47.11359473649085,101.21170857038283 L 47.475366006475554,101.06185800387811 L 47.86359439989394,101.01074676625018 L 48.25182279331236,101.06185800387834 L 48.61359406329706,101.2117085703826 M 61.29241772163823,81.32517560972144 L 61.34389677209751,81.713355579662 L 61.29315334730106,82.10163239655827 L 61.14364552779128,82.46354563699674 L 60.90556202439436,82.77443151173122 L 60.59512783441531,83.01310366216165 L 60.23349853488432,83.16329697566118 L 59.845318564943824,83.21477602612066 L 59.45704174804757,83.16403260132432 L 59.09512850760916,83.01452478181449 L 58.78424263287462,82.77644127841751 L 58.54557048244391,82.46600708843829 L 58.39537716894455,82.10437778890736 L 58.34389811848527,81.71619781896686 L 58.39464154328164,81.32792100207052 L 58.544149362791444,80.96600776163211 L 58.78223286618831,80.6551218868978 L 59.092667056167414,80.41644973646686 L 59.4542963556984,80.2662564229675 L 59.8424763256389,80.21477737250859 L 60.23075314253521,80.26552079730482 L 60.59266638297359,80.4150286168146 L 60.9035522577081,80.65311212021146 L 61.142224408138844,80.96354631019028 L 61.29241772163823,81.32517560972144 M 102.61022017297636,22.80973524119247 L 102.92129140247232,23.047576486040157 L 103.16020529298055,23.357824645572208 L 103.31068025768664,23.719336820426037 L 103.36246167641771,24.107476553312296 L 103.3120207310599,24.495792762866103 L 103.16279488868179,24.857822341129292 L 102.92495364383414,25.168893570625215 L 102.61470548430204,25.407807461133388 L 102.25319330944826,25.55828242583962 L 101.86505357656192,25.610063844570732 L 101.47673736700814,25.559622899212798 L 101.11470778874505,25.410397056834825 L 100.80363655924899,25.17255581198708 L 100.56472266874086,24.862307652454916 L 100.41424770403476,24.500795477601145 L 100.3624662853037,24.112655744714885 L 100.41290723066145,23.724339535161107 L 100.56213307303958,23.36230995689803 L 100.79997431788726,23.051238727401937 L 101.11022247741933,22.812324836893737 L 101.4717346522731,22.661849872187645 L 101.85987438515944,22.610068453456535 L 102.24819059471326,22.660509398814355 L 102.61022017297636,22.80973524119247 M 173.47405557342694,14.981377443562991 L 173.78533200567972,15.218950094394614 L 174.02451362407714,15.528991922411421 L 174.1753005965917,15.8903740894024 L 174.2274170402338,16.27846899789941 L 174.17731130549566,16.66682862124557 L 174.02839801539602,17.02898689290447 L 173.79082536456448,17.34026332515728 L 173.48078353654768,17.579444943554762 L 173.1194013695567,17.730231916069272 L 172.73130646105975,17.78234835971125 L 172.34294683771355,17.732242624973225 L 171.9807885660547,17.583329334873525 L 171.6695121338019,17.345756684042044 L 171.43033051540448,17.035714856025294 L 171.27954354288988,16.67433268903426 L 171.22742709924788,16.28623778053725 L 171.277532833986,15.897878157191087 L 171.42644612408557,15.535719885532274 L 171.66401877491717,15.224443453279434 L 171.97406060293392,14.98526183488201 L 172.33544276992492,14.834474862367472 L 172.72353767842188,14.782358418725408 L 173.11189730176807,14.832464153463462 L 173.47405557342694,14.981377443562991 M 195.4269065961679,15.473569693879398 L 195.66447924699946,15.162293261626559 L 195.9745210750162,14.923111643228992 L 196.3359032420072,14.772324670714482 L 196.72399815050414,14.720208227072447 L 197.11235777385025,14.770313961810501 L 197.47451604550918,14.919227251909945 L 197.78579247776196,15.156799902741625 L 198.02497409615944,15.466841730758318 L 198.175761068674,15.828223897749353 L 198.22787751231613,16.21631880624622 L 198.17777177757807,16.604678429592383 L 198.0288584874785,16.966836701251253 L 197.79128583664698,17.278113133504093 L 197.48124400863017,17.517294751901602 L 197.11986184163922,17.668081724416226 L 196.73176693314227,17.720198168058204 L 196.34340730979616,17.67009243332012 L 195.98124903813732,17.521179143220564 L 195.66997260588442,17.283606492389026 L 195.43079098748694,16.973564664372276 L 195.2800040149724,16.612182497381355 L 195.2278875713303,16.224087588884316 L 195.27799330606837,15.835727965538268 L 195.4269065961679,15.473569693879398 M 203.81787544548288,235.4775326961497 L 203.72795022150422,238.22446412381572 L 203.45855962318288,240.95963276939182 L 203.01085722241857,243.67132622082698 L 202.3867601496237,246.34793259045557 L 201.58894088427732,248.97799023888246 L 200.62081581095688,251.5502368554835 L 199.48653058985576,254.05365768534773 L 198.19094240442928,256.4775326961496 L 196.7395991621897,258.8114824829729 L 195.13871573771473,261.0455127145159 L 193.39514735959997,263.17005693035264 L 191.5163602553178,265.17601750598476 L 189.51039967968578,267.0548046102668 L 187.38585546384908,268.7983729883815 L 185.15182523230612,270.39925641285663 L 182.81787544548283,271.85059965509606 L 180.39400043468086,273.14618784052266 L 177.8905796048166,274.2804730616237 L 175.31833298821562,275.248598134944 L 172.68827533978876,276.04641740029064 L 170.01166897016026,276.6705144730854 L 167.29997551872506,277.11821687384975 L 164.56480687314888,277.38760747217106 L 161.81787544548285,277.4775326961496 L 159.07094401781688,277.38760747217106 L 156.33577537224073,277.11821687384975 L 153.6240819208055,276.6705144730854 L 150.94747555117698,276.0464174002905 L 148.31741790275012,275.2485981349443 L 145.7451712861491,274.2804730616237 L 143.24175045628482,273.14618784052266 L 140.8178754454829,271.8505996550962 L 138.48392565865953,270.39925641285663 L 136.2498954271166,268.7983729883815 L 134.12535121128002,267.05480461026673 L 132.1193906356479,265.17601750598465 L 130.24060353136582,263.1700569303527 L 128.49703515325103,261.045512714516 L 126.89615172877598,258.8114824829731 L 125.44480848653652,256.47753269614975 L 124.14922030110995,254.05365768534784 L 123.01493508000884,251.5502368554835 L 122.04681000668842,248.97799023888257 L 121.24899074134196,246.34793259045557 L 120.62489366854717,243.67132622082715 L 120.17719126778282,240.95963276939193 L 119.9078006694615,238.22446412381578 L 119.81787544548285,235.47753269614975 L 119.9078006694615,232.73060126848372 L 120.17719126778282,229.99543262290769 L 120.62489366854713,227.28373917147252 L 121.24899074134186,224.607132801844 L 122.04681000668833,221.977075153417 L 123.01493508000875,219.40482853681613 L 124.1492203011099,216.9014077069516 L 125.44480848653639,214.47753269614986 L 126.89615172877585,212.14358290932643 L 128.49703515325086,209.90955267778355 L 130.2406035313657,207.78500846194675 L 132.1193906356477,205.77904788631486 L 134.12535121127985,203.90026078203272 L 136.24989542711646,202.15669240391782 L 138.48392565865947,200.55580897944293 L 140.81787544548277,199.10446573720327 L 143.2417504562847,197.80887755177667 L 145.74517128614903,196.67459233067564 L 148.31741790274998,195.7064672573552 L 150.94747555117692,194.90864799200887 L 153.62408192080542,194.28455091921387 L 156.33577537224068,193.83684851844959 L 159.07094401781688,193.5674579201284 L 161.81787544548288,193.47753269614964 L 164.56480687314888,193.5674579201284 L 167.29997551872506,193.83684851844964 L 170.01166897016031,194.28455091921404 L 172.68827533978882,194.9086479920088 L 175.31833298821573,195.7064672573553 L 177.8905796048167,196.67459233067558 L 180.39400043468103,197.80887755177685 L 182.81787544548297,199.10446573720338 L 185.15182523230627,200.55580897944287 L 187.38585546384925,202.15669240391793 L 189.51039967968586,203.90026078203272 L 191.51636025531803,205.77904788631486 L 193.3951473596001,207.78500846194697 L 195.13871573771485,209.90955267778355 L 196.73959916218988,212.14358290932654 L 198.1909424044294,214.47753269614986 L 199.48653058985593,216.901407706952 L 200.620815810957,219.40482853681618 L 201.58894088427738,221.97707515341716 L 202.38676014962383,224.60713280184416 L 203.0108572224186,227.28373917147252 L 203.4585596231829,229.99543262290786 L 203.72795022150424,232.73060126848407 L 203.81787544548288,235.4775326961497 M 200.29825553735566,200.64882416829278 L 200.29825553735563,140.648824168293 L 230.2982555373556,140.648824168293 L 230.29825553735557,200.64882416829278 L 200.29825553735566,200.64882416829278 " />
  <path
     id="face0-interior"
     style="fill:none;stroke:#00FF00;stroke-width:1;stroke-miterlimit:4;stroke-dasharray:none;stroke-linejoin:round;stroke-linecap:round"
     d="M 354.35996625732787,146.09475901725295 M 287.7592759693571,30.96859498389489 M 285.78792813775004,27.88008517184312 M 283.5549005131557,24.975142356550492 M 281.07718778413596,22.275874906893904 M 278.3736468406429,19.802825878027363 M 275.46485326169875,17.574816666328417 M 272.3729447228171,15.608803767206894 M 269.1214525149241,13.9197497259361 M 265.73512245702665,12.520509263648819 M 262.23972656558726,11.421731445147543 M 258.6618669139175,10.631778633091301 M 255.02877317433737,10.156662845366355 M 251.36809538392714,10.0 M 118.36556754679897,10.114807682283185 M 114.70516567392121,10.277790078124326 M 111.0728975870395,10.759177320729265 M 107.49640703951863,11.55530576251192 M 104.00291328396914,12.66011638531512 M 100.61900391730009,14.065200913196264 M 97.37043253305211,15.759865804485088 M 94.28192272100037,17.731213636092036 M 91.37697990570776,19.96424126068652 M 88.6777124560511,22.441953989706178 M 86.20466342718458,25.14549493319933 M 83.9766542154857,28.054288512143557 M 82.01064131636412,31.146197051025098 M 15.60867756329219,146.094759017253 M 13.9197497259361,149.63866097455843 M 12.520509263648847,153.02499103245708 M 11.4217314451476,156.520386923898 M 10.631778633091301,160.09824657556584 M 10.15666284536627,163.73134031514553 M 10.0,167.3920181055558 M 10.162982395841254,171.0524199784346 M 10.644369638446108,174.68468806531615 M 11.44049808022885,178.26117861283717 M 12.545308703032049,181.75467236838625 M 13.950393230913193,185.13858173505565 M 15.645058122202045,188.387153119304 M 82.24574841017278,303.5133171526618 M 84.21709624177993,306.6018269647135 M 86.45012386637427,309.5067697800061 M 88.9278365953939,312.2060372296627 M 91.6313775388871,314.67908625852925 M 94.54017111783119,316.90709547022806 M 97.6320796567129,318.87310836934984 M 100.8835718646058,320.5621624106205 M 104.26990192250327,321.96140287290774 M 107.76529781394268,323.06018069140913 M 111.34315746561244,323.8501335034653 M 114.97625120519253,324.32524929119035 M 118.63692899560296,324.4819121365567 M 251.63945683273107,324.3671044542734 M 255.29985870560895,324.20412205843223 M 258.9321267924905,323.72273481582744 M 262.5086173400115,322.9266063740445 M 266.0021110955609,321.8217957512415 M 269.38602046222996,320.4167112233603 M 272.63459184647786,318.72204633207144 M 275.72310165852963,316.75069850046447 M 278.6280444738222,314.51767087587 M 281.3273119234788,312.03995814685044 M 283.80036095234533,309.33641720335726 M 286.02837016404425,306.42762362441323 M 287.99438306316586,303.33571508553143 M 354.39622061232296,188.09474336988995 M 356.08527465359373,184.843251161997 M 357.4845151158811,181.4569211040996 M 358.58329293438237,177.96152521266015 M 359.37324574643856,174.38366556099044 M 359.8483615341635,170.7505718214103 M 360.0050243795298,167.08989403099991 M 359.84204198368866,163.42949215812206 M 359.36065474108375,159.7972240712404 M 358.56452629930095,156.22073352371956 M 357.4597156764977,152.72723976817002 M 356.0546311486165,149.34333040150096 M 268.9337387875073,22.92909585981451 M 269.0848376415835,23.2903477163741 M 269.1372890665019,23.67839747554791 M 269.08751858433476,24.066800187530788 M 268.9389179711919,24.429086849367025 M 268.7016141132851,24.740568223759368 M 268.3917788763674,24.980017369790374 M 268.0305270198079,25.131116223866456 M 267.642477260634,25.1835676487849 M 267.2540745486511,25.13379716661774 M 266.89178788681494,24.985196553474935 M 266.5803065124225,24.74789269556814 M 266.34085736639156,24.438057458650377 M 266.1897585123155,24.076805602090815 M 266.137307087397,23.688755842917004 M 266.1870775695642,23.300353130934184 M 266.335678182707,22.938066469097947 M 266.57298204061385,22.62658509470552 M 266.88281727753156,22.38713594867454 M 267.2440691340911,22.236037094598515 M 267.6321188932649,22.18358566968007 M 268.0205216052478,22.233356151847232 M 268.382808267084,22.381956764990036 M 268.69428964147636,22.619260622896803 M 308.6456429279101,80.32322843225631 M 308.8826778379396,80.01154231911278 M 309.1923062814448,79.7718258018017 M 309.5534275916859,79.62041516482742 M 309.9414319481511,79.56762879288186 M 310.32987749515496,79.61706398997944 M 310.6922923106057,79.76535182913358 M 311.0039784237492,80.00238673916317 M 311.2436949410603,80.31201518266829 M 311.39510557803453,80.6731364929094 M 311.44789194998015,81.06114084937462 M 311.39845675288257,81.44958639637849 M 311.25016891372843,81.81200121182917 M 311.01313400369884,82.1236873249727 M 310.70350556019366,82.36340384228379 M 310.3423842499526,82.51481447925806 M 309.9543798934874,82.56760085120368 M 309.5659343464835,82.51816565410604 M 309.2035195310328,82.3698778149519 M 308.8918334178893,82.13284290492243 M 308.6521169005782,81.8232144614172 M 308.50070626360383,81.46209315117613 M 308.44791989165833,81.07408879471086 M 308.49735508875597,80.68564324770705 M 323.3673410032427,101.42960903762122 M 323.41669925255957,101.80452216286676 M 323.3673410032427,102.17943528811224 M 323.2226299384147,102.52879870344543 M 322.99242787799716,102.82880386946181 M 322.6924227119808,103.05900592987933 M 322.34305929664754,103.20371699470735 M 321.9681461714021,103.25307524402422 M 321.5932330461565,103.2037169947074 M 321.2438696308233,103.05900592987933 M 320.94386446480695,102.82880386946181 M 320.7136624043895,102.52879870344543 M 320.56895133956147,102.17943528811219 M 320.5195930902446,101.8045221628667 M 320.56895133956147,101.42960903762116 M 320.7136624043895,101.08024562228798 M 320.94386446480695,100.7802404562716 M 321.2438696308233,100.55003839585407 M 321.5932330461566,100.40532733102606 M 321.9681461714021,100.35596908170925 M 322.34305929664754,100.40532733102606 M 322.6924227119808,100.55003839585413 M 322.99242787799716,100.7802404562716 M 323.2226299384147,101.08024562228798 M 351.48429171965,165.74623842970925 M 351.79495187711746,165.9846163526239 M 352.03332980003216,166.29527651009136 M 352.1831804268853,166.65704792577054 M 352.2342916850971,167.0452764755384 M 352.18318042688543,167.43350502530626 M 352.0333298000322,167.7952764409855 M 351.7949518771176,168.10593659845296 M 351.48429171965006,168.3443145213676 M 351.12252030397093,168.49416514822087 M 350.7342917542031,168.54527640643255 M 350.3460632044352,168.49416514822093 M 349.984291788756,168.34431452136772 M 349.67363163128846,168.10593659845313 M 349.4352537083739,167.79527644098562 M 349.2854030815206,167.43350502530643 M 349.2342918233089,167.04527647553857 M 349.2854030815206,166.6570479257707 M 349.4352537083738,166.29527651009153 M 349.6736316312884,165.98461635262402 M 349.98429178875585,165.74623842970936 M 350.34606320443504,165.5963878028561 M 350.7342917542029,165.54527654464442 M 351.12252030397076,165.5963878028561 M 321.578667069178,230.8318691388164 M 321.96685137300943,230.78042277880814 M 322.35512391521155,230.83119890184912 M 322.717024563684,230.98073719906552 M 323.0278903873026,231.21884688262583 M 323.2665363939176,231.52930117109008 M 323.4166992525595,231.89094311774966 M 323.4681456125677,232.279127421581 M 323.41736948952666,232.66739996378323 M 323.26783119231027,233.02930061225567 M 323.0297215087501,233.34016643587415 M 322.7192672202857,233.57881244248927 M 322.3576252736262,233.7289753011312 M 321.96944096979473,233.78042166113926 M 321.5811684275926,233.72964553809823 M 321.2192677791201,233.5801072408819 M 320.90840195550163,233.3419975573217 M 320.6697559488865,233.03154326885738 M 320.5195930902447,232.66990132219786 M 320.4681467302365,232.28171701836635 M 320.5189228532775,231.89344447616423 M 320.66846115049384,231.5315438276918 M 320.90657083405415,231.2206780040732 M 321.2170251225184,230.9820319974582 M 311.28448211740624,252.32426150562054 M 311.43464497604816,252.68590345228017 M 311.48609133605623,253.07408775611157 M 311.4353152130152,253.4623602983138 M 311.2857769157988,253.82426094678624 M 311.0476672322385,254.13512677040484 M 310.7372129437742,254.37377277701984 M 310.37557099711466,254.52393563566164 M 309.9873866932831,254.57538199566983 M 309.59911415108104,254.52460587262885 M 309.2372135026085,254.3750675754124 M 308.92634767899,254.1369578918521 M 308.6877016723749,253.82650360338778 M 308.5375388137331,253.46486165672815 M 308.4860924537249,253.07667735289675 M 308.53686857676587,252.68840481069464 M 308.6864068739823,252.32650416222208 M 308.92451655754263,252.01563833860348 M 309.23497084600695,251.77699233198848 M 309.5966127926665,251.62682947334667 M 309.984797096498,251.5753831133385 M 310.3730696387002,251.62615923637946 M 310.73497028717264,251.77569753359592 M 311.04583611079124,252.01380721715623 M 267.22549707835316,311.97811586627785 M 266.91442584885715,311.74027462143016 M 266.67551195834903,311.4300264618982 M 266.52503699364286,311.06851428704437 M 266.4732555749119,310.6803745541581 M 266.5236965202697,310.29205834460424 M 266.6729223626478,309.93002876634114 M 266.9107636074955,309.61895753684513 M 267.2210117670276,309.3800436463371 M 267.5825239418814,309.2295686816309 M 267.97066367476765,309.1777872629 M 268.3589798843215,309.2282282082577 M 268.7210094625845,309.37745405063583 M 269.03208069208057,309.6152952954835 M 269.27099458258874,309.9255434550156 M 269.42146954729486,310.28705562986937 M 269.47325096602583,310.67519536275574 M 269.42281002066795,311.0635115723095 M 269.2735841782899,311.42554115057254 M 269.03574293344224,311.7366123800686 M 268.7254947739101,311.97552627057667 M 268.3639825990564,312.1260012352829 M 267.97584286617007,312.1777826540139 M 267.5875266566162,312.127341708656 M 198.55133611721126,318.1222567027217 M 198.60345256011897,318.5103516113174 M 198.55334682464596,318.8987112345687 M 198.40443353386107,319.26086950594566 M 198.16686088244046,319.572145937749 M 197.85681905397112,319.81132755555967 M 197.4954368866948,319.9621145273904 M 197.1073419780992,320.0142309702981 M 196.71898235484795,319.9641252348252 M 196.35682408347088,319.8152119440402 M 196.0455476516676,319.5776392926197 M 195.80636603385685,319.26759746415036 M 195.65557906202608,318.906215296874 M 195.60346261911835,318.5181203882783 M 195.65356835459133,318.129760765027 M 195.80248164537625,317.76760249365003 M 196.04005429679688,317.4563260618468 M 196.35009612526622,317.217144444036 M 196.7114782925425,317.0663574722052 M 197.09957320113813,317.01424102929747 M 197.48793282438945,317.0643467647705 M 197.85009109576652,317.2132600555555 M 198.16136752756975,317.450832706976 M 198.40054914538055,317.76087453544534 M 172.3529872464243,319.8694943946959 M 172.04232811628944,319.63111726008134 M 171.80395098167503,319.32045812994664 M 171.65410085036802,318.9586879106217 M 171.60298976117787,318.5704606447002 M 171.65410085036797,318.18223337877856 M 171.80395098167503,317.8204631594536 M 172.04232811628953,317.5098040293189 M 172.35298724642433,317.27142689470435 M 172.71475746574922,317.1215767633974 M 173.1029847316708,317.07046567420724 M 173.49121199759236,317.1215767633973 M 173.8529822169172,317.27142689470435 M 174.16364134705208,317.5098040293188 M 174.40201848166652,317.8204631594537 M 174.55186861297364,318.1822333787787 M 174.60297970216368,318.57046064470006 M 174.55186861297358,318.9586879106217 M 174.40201848166646,319.32045812994664 M 174.16364134705208,319.63111726008134 M 173.85298221691718,319.8694943946959 M 173.49121199759236,320.01934452600307 M 173.10298473167074,320.0704556151931 M 172.71475746574922,320.01934452600307 M 102.58165954826318,309.6596541028333 M 102.94394621009941,309.8082547159762 M 103.25542758449176,310.04555857388317 M 103.49487673052269,310.35539381080076 M 103.64597558459867,310.71664566736047 M 103.69842700951718,311.10469542653425 M 103.64865652734983,311.49309813851704 M 103.50005591420698,311.8553848003533 M 103.26275205630006,312.16686617474556 M 102.95291681938247,312.4063153207766 M 102.59166496282278,312.55741417485257 M 102.20361520364904,312.6098655997709 M 101.8152124916661,312.5600951176037 M 101.45292582983,312.41149450446085 M 101.14144445543769,312.174190646554 M 100.90199530940673,311.8643554096363 M 100.75089645533069,311.5031035530765 M 100.69844503041229,311.1150537939029 M 100.74821551257959,310.72665108192 M 100.89681612572244,310.3643644200838 M 101.13411998362926,310.05288304569154 M 101.44395522054704,309.81343389966065 M 101.80520707710664,309.66233504558465 M 102.19325683628037,309.609883620666 M 59.877233944121826,252.22255449358101 M 60.265683652157946,252.27195698365767 M 60.62811095205717,252.4202143072099 M 60.93981702227077,252.65722297264483 M 61.17955960923234,252.96683123108795 M 61.331000651833705,253.3279397913783 M 61.383819693289894,253.71593970189252 M 61.33441720321309,254.10438940992856 M 61.18615987966061,254.4668167098277 M 60.94915121422582,254.77852278004138 M 60.6395429557827,255.01826536700293 M 60.2784343954923,255.16970640960426 M 59.89043448497844,255.2225254510605 M 59.50198477694218,255.17312296098368 M 59.139557477042985,255.02486563743122 M 58.82785140682935,254.7878569719964 M 58.588108819867784,254.47824871355328 M 58.436667777266365,254.11714015326282 M 58.38384873581026,253.72914024274894 M 58.433251225887034,253.34069053471262 M 58.58150854943949,252.97826323481337 M 58.81851721487425,252.6665571645999 M 59.128125473317425,252.42681457763848 M 59.48923403360783,252.2753735350371 M 48.6138419392619,231.6877513880334 M 48.924296231282426,231.92639739002277 M 49.162405919474935,232.23726321009286 M 49.311944222084094,232.599163856337 M 49.36272035091082,232.9874363977828 M 49.31127399668708,233.37562070238062 M 49.161111143434056,233.73726265127777 M 48.92246514144523,234.04771694329844 M 48.6115993213748,234.28582663149086 M 48.24969867513059,234.4353649341001 M 47.861426133685086,234.48614106292678 M 47.47324182908693,234.43469470870315 M 47.11159988018977,234.28453185545004 M 46.801145588169334,234.04588585346113 M 46.563035899976825,233.73502003339092 M 46.41349759736761,233.37311938714646 M 46.36272146854088,232.98484684570093 M 46.414167822764625,232.59666254110294 M 46.56433067601756,232.23502059220556 M 46.8029766780065,231.9245663001853 M 47.113842498076934,231.68645661199275 M 47.47574314432117,231.53691830938357 M 47.8640156857667,231.4861421805569 M 48.25219999036477,231.53758853478047 M 20.157234461950566,166.69033616723954 M 20.39561238949412,167.00099632115388 M 20.5454630217381,167.36276773460105 M 20.596574285734704,167.75099628360744 M 20.54546303330804,168.13922483413683 M 20.395612411845548,168.5009962520475 M 20.15723449356014,168.81165641306745 M 19.846574339644775,169.05003434061115 M 19.484802926198654,169.1998849728554 M 19.096574377192496,169.25099623685196 M 18.70834582666322,169.19988498442467 M 18.346574408751223,169.05003436296226 M 18.03591424773174,168.81165644467706 M 17.7975363201881,168.50099629076152 M 17.647685687944232,168.13922487731634 M 17.596574423947573,167.7509963283095 M 17.64768567637421,167.36276777777942 M 17.797536297836672,167.00099635986817 M 18.03591421612211,166.69033619884902 M 18.3465743700375,166.45195827130544 M 18.708345783483594,166.3021076390611 M 19.09657433248975,166.2509963750648 M 19.484802883019142,166.30210762749232 M 19.846574300931053,166.45195824895296 M 48.61359406329706,101.2117085703826 M 48.92425409565385,101.45008639729684 M 49.16263192256764,101.76074642965352 M 49.31248248907224,102.12251769963814 M 49.36359372670012,102.51074609305647 M 49.31248248907224,102.89897448647469 M 49.16263192256764,103.26074575645936 M 48.92425409565385,103.57140578881649 M 48.61359406329703,103.80978361573011 M 48.25182279331236,103.95963418223477 M 47.863594399894,104.01074541986253 M 47.475366006475554,103.95963418223494 M 47.11359473649091,103.80978361572988 M 46.80293470413409,103.57140578881638 M 46.56455687722027,103.2607457564593 M 46.41470631071559,102.89897448647525 M 46.363595073087794,102.51074609305664 M 46.4147063107157,102.12251769963768 M 46.56455687722021,101.76074642965347 M 46.80293470413406,101.45008639729684 M 47.11359473649085,101.21170857038283 M 47.475366006475554,101.06185800387811 M 47.86359439989394,101.01074676625018 M 48.25182279331236,101.06185800387834 M 61.29241772163823,81.32517560972144 M 61.34389677209751,81.713355579662 M 61.29315334730106,82.10163239655827 M 61.14364552779128,82.46354563699674 M 60.90556202439436,82.77443151173122 M 60.59512783441531,83.01310366216165 M 60.23349853488432,83.16329697566118 M 59.845318564943824,83.21477602612066 M 59.45704174804757,83.16403260132432 M 59.09512850760916,83.01452478181449 M 58.78424263287462,82.77644127841751 M 58.54557048244391,82.46600708843829 M 58.39537716894455,82.10437778890736 M 58.34389811848527,81.71619781896686 M 58.39464154328164,81.32792100207052 M 58.544149362791444,80.96600776163211 M 58.78223286618831,80.6551218868978 M 59.092667056167414,80.41644973646686 M 59.4542963556984,80.2662564229675 M 59.8424763256389,80.21477737250859 M 60.23075314253521,80.26552079730482 M 60.59266638297359,80.4150286168146 M 60.9035522577081,80.65311212021146 M 61.142224408138844,80.96354631019028 M 102.61022017297636,22.80973524119247 M 102.92129140247232,23.047576486040157 M 103.16020529298055,23.357824645572208 M 103.31068025768664,23.719336820426037 M 103.36246167641771,24.107476553312296 M 103.3120207310599,24.495792762866103 M 103.16279488868179,24.857822341129292 M 102.92495364383414,25.168893570625215 M 102.61470548430204,25.407807461133388 M 102.25319330944826,25.55828242583962 M 101.86505357656192,25.610063844570732 M 101.47673736700814,25.559622899212798 M 101.11470778874505,25.410397056834825 M 100.80363655924899,25.17255581198708 M 100.56472266874086,24.862307652454916 M 100.41424770403476,24.500795477601145 M 100.3624662853037,24.112655744714885 M 100.41290723066145,23.724339535161107 M 100.56213307303958,23.36230995689803 M 100.79997431788726,23.051238727401937 M 101.11022247741933,22.812324836893737 M 101.4717346522731,22.661849872187645 M 101.85987438515944,22.610068453456535 M 102.24819059471326,22.660509398814355 M 173.47405557342694,14.981377443562991 M 173.78533200567972,15.218950094394614 M 174.02451362407714,15.528991922411421 M 174.1753005965917,15.8903740894024 M 174.2274170402338,16.27846899789941 M 174.17731130549566,16.66682862124557 M 174.02839801539602,17.02898689290447 M 173.79082536456448,17.34026332515728 M 173.48078353654768,17.579444943554762 M 173.1194013695567,17.730231916069272 M 172.73130646105975,17.78234835971125 M 172.34294683771355,17.732242624973225 M 171.9807885660547,17.583329334873525 M 171.6695121338019,17.345756684042044 M 171.43033051540448,17.035714856025294 M 171.27954354288988,16.67433268903426 M 171.22742709924788,16.28623778053725 M 171.277532833986,15.897878157191087 M 171.42644612408557,15.535719885532274 M 171.66401877491717,15.224443453279434 M 171.97406060293392,14.98526183488201 M 172.33544276992492,14.834474862367472 M 172.72353767842188,14.782358418725408 M 173.11189730176807,14.832464153463462 M 195.4269065961679,15.473569693879398 M 195.66447924699946,15.162293261626559 M 195.9745210750162,14.923111643228992 M 196.3359032420072,14.772324670714482 M 196.72399815050414,14.720208227072447 M 197.11235777385025,14.770313961810501 M 197.47451604550918,14.919227251909945 M 197.78579247776196,15.156799902741625 M 198.02497409615944,15.466841730758318 M 198.175761068674,15.828223897749353 M 198.22787751231613,16.21631880624622 M 198.17777177757807,16.604678429592383 M 198.0288584874785,16.966836701251253 M 197.79128583664698,17.278113133504093 M 197.48124400863017,17.517294751901602 M 197.11986184163922,17.668081724416226 M 196.73176693314227,17.720198168058204 M 196.34340730979616,17.67009243332012 M 195.98124903813732,17.521179143220564 M 195.66997260588442,17.283606492389026 M 195.43079098748694,16.973564664372276 M 195.2800040149724,16.612182497381355 M 195.2278875713303,16.224087588884316 M 195.27799330606837,15.835727965538268 M 203.81787544548288,235.4775326961497 M 203.72795022150422,238.22446412381572 M 203.45855962318288,240.95963276939182 M 203.01085722241857,243.67132622082698 M 202.3867601496237,246.34793259045557 M 201.58894088427732,248.97799023888246 M 200.62081581095688,251.5502368554835 M 199.48653058985576,254.05365768534773 M 198.19094240442928,256.4775326961496 M 196.7395991621897,258.8114824829729 M 195.13871573771473,261.0455127145159 M 193.39514735959997,263.17005693035264 M 191.5163602553178,265.17601750598476 M 189.51039967968578,267.0548046102668 M 187.38585546384908,268.7983729883815 M 185.15182523230612,270.39925641285663 M 182.81787544548283,271.85059965509606 M 180.39400043468086,273.14618784052266 M 177.8905796048166,274.2804730616237 M 175.31833298821562,275.248598134944 M 172.68827533978876,276.04641740029064 M 170.01166897016026,276.6705144730854 M 167.29997551872506,277.11821687384975 M 164.56480687314888,277.38760747217106 M 161.81787544548285,277.4775326961496 M 159.07094401781688,277.38760747217106 M 156.33577537224073,277.11821687384975 M 153.6240819208055,276.6705144730854 M 150.94747555117698,276.0464174002905 M 148.31741790275012,275.2485981349443 M 145.7451712861491,274.2804730616237 M 143.24175045628482,273.14618784052266 M 140.8178754454829,271.8505996550962 M 138.48392565865953,270.39925641285663 M 136.2498954271166,268.7983729883815 M 134.12535121128002,267.05480461026673 M 132.1193906356479,265.17601750598465 M 130.24060353136582,263.1700569303527 M 128.49703515325103,261.045512714516 M 126.89615172877598,258.8114824829731 M 125.44480848653652,256.47753269614975 M 124.14922030110995,254.05365768534784 M 123.01493508000884,251.5502368554835 M 122.04681000668842,248.97799023888257 M 121.24899074134196,246.34793259045557 M 120.62489366854717,243.67132622082715 M 120.17719126778282,240.95963276939193 M 119.9078006694615,238.22446412381578 M 119.81787544548285,235.47753269614975 M 119.9078006694615,232.73060126848372 M 120.17719126778282,229.99543262290769 M 120.62489366854713,227.28373917147252 M 121.24899074134186,224.607132801844 M 122.04681000668833,221.977075153417 M 123.01493508000875,219.40482853681613 M 124.1492203011099,216.9014077069516 M 125.44480848653639,214.47753269614986 M 126.89615172877585,212.14358290932643 M 128.49703515325086,209.90955267778355 M 130.2406035313657,207.78500846194675 M 132.1193906356477,205.77904788631486 M 134.12535121127985,203.90026078203272 M 136.24989542711646,202.15669240391782 M 138.48392565865947,200.55580897944293 M 140.81787544548277,199.10446573720327 M 143.2417504562847,197.80887755177667 M 145.74517128614903,196.67459233067564 M 148.31741790274998,195.7064672573552 M 150.94747555117692,194.90864799200887 M 153.62408192080542,194.28455091921387 M 156.33577537224068,193.83684851844959 M 159.07094401781688,193.5674579201284 M 161.81787544548288,193.47753269614964 M 164.56480687314888,193.5674579201284 M 167.29997551872506,193.83684851844964 M 170.01166897016031,194.28455091921404 M 172.68827533978882,194.9086479920088 M 175.31833298821573,195.7064672573553 M 177.8905796048167,196.67459233067558 M 180.39400043468103,197.80887755177685 M 182.81787544548297,199.10446573720338 M 185.15182523230627,200.55580897944287 M 187.38585546384925,202.15669240391793 M 189.51039967968586,203.90026078203272 M 191.51636025531803,205.77904788631486 M 193.3951473596001,207.78500846194697 M 195.13871573771485,209.90955267778355 M 196.73959916218988,212.14358290932654 M 198.1909424044294,214.47753269614986 M 199.48653058985593,216.901407706952 M 200.620815810957,219.40482853681618 M 201.58894088427738,221.97707515341716 M 202.38676014962383,224.60713280184416 M 203.0108572224186,227.28373917147252 M 203.4585596231829,229.99543262290786 M 203.72795022150424,232.73060126848407 M 200.29825553735566,200.64882416829278 M 200.29825553735563,140.648824168293 M 230.2982555373556,140.648824168293 M 230.29825553735557,200.64882416829278 " />
</svg>
